Input #0, mov,mp4,m4a,3gp,3g2,mj2, from '/home/hbattu/projects/huberman-gpt/huberman-audio/mp3/tmp65m6ls8t.mp4':
  Metadata:
    major_brand     : dash
    minor_version   : 0
    compatible_brands: iso6mp41
    creation_time   : 2021-01-10T08:08:38.000000Z
  Duration: 01:02:30.97, start: 0.000000, bitrate: 129 kb/s
    Stream #0:0(und): Audio: aac (LC) (mp4a / 0x6134706D), 44100 Hz, stereo, fltp, 0 kb/s (default)
    Metadata:
      creation_time   : 2021-01-10T08:08:38.000000Z
      handler_name    : ISO Media file produced by Google Inc.
Stream mapping:
  Stream #0:0 -> #0:0 (aac (native) -> mp3 (libmp3lame))
Press [q] to stop, [?] for help
[graph_0_in_0_0 @ 0x558243e32080] tb:1/44100 samplefmt:fltp samplerate:44100 chlayout:0x3
Output #0, mp3, to '../huberman-audio/mp3/H-XfCl-HpRM.mp3':
  Metadata:
    major_brand     : dash
    minor_version   : 0
    compatible_brands: iso6mp41
    TSSE            : Lavf58.29.100
    Stream #0:0(und): Audio: mp3 (libmp3lame), 44100 Hz, stereo, fltp, delay 1105 (default)
    Metadata:
      creation_time   : 2021-01-10T08:08:38.000000Z
      handler_name    : ISO Media file produced by Google Inc.
      encoder         : Lavc58.54.100 libmp3lame
No more output streams to write to, finishing.
size=   58610kB time=01:02:30.97 bitrate= 128.0kbits/s speed=98.3x    
[AVIOContext @ 0x558243d2a900] Statistics: 0 seeks, 77 writeouts
video:0kB audio:58609kB subtitle:0kB other streams:0kB global headers:0kB muxing overhead: 0.000577%
Input file #0 (/home/hbattu/projects/huberman-gpt/huberman-audio/mp3/tmp65m6ls8t.mp4):
  Input stream #0:0 (audio): 161541 packets read (60015595 bytes); 161541 frames decoded (165417984 samples); 
  Total: 161541 packets (60015595 bytes) demuxed
Output file #0 (../huberman-audio/mp3/H-XfCl-HpRM.mp3):
  Output stream #0:0 (audio): 143592 frames encoded (165417984 samples); 143593 packets muxed (60016013 bytes); 
  Total: 143593 packets (60016013 bytes) muxed
[AVIOContext @ 0x558243d46100] Statistics: 2 seeks, 230 writeouts
[AVIOContext @ 0x558243d33880] Statistics: 60706039 bytes read, 0 seeks
